<svg width="92" height="19" viewBox="0 0 92 19" fill="none" xmlns="http://www.w3.org/2000/svg">
<path fill-rule="evenodd" clip-rule="evenodd" d="M22.3583 4.4591C24.6952 4.4591 26.7049 5.29436 28.0566 6.74951C29.3654 8.1583 30.0956 9.97293 30.0956 12.6672V18.9362C30.0299 18.9397 29.9503 18.9438 29.8891 18.9438C29.0419 18.9438 28.3336 18.6743 27.8538 18.1959C27.4078 17.7426 27.1656 17.1247 27.1656 16.2202V13.2823C27.1656 10.96 26.5988 9.48669 25.6356 8.53169C24.8103 7.7155 23.7208 7.24754 22.3663 7.24754C19.6656 7.24754 17.8615 9.15263 17.8615 11.9362C17.8615 14.7675 19.6556 16.3147 21.7074 16.3147C23.6276 16.3147 24.8157 15.1381 25.2297 12.9816C25.7406 13.7407 25.9801 14.54 25.9801 15.2829C25.9801 17.2909 24.2455 19 21.3746 19C17.6467 19 14.7805 16.2006 14.7805 12.0051C14.7805 7.73364 17.8825 4.4591 22.3583 4.4591ZM50.305 4.60533C51.135 4.60533 51.8168 4.87116 52.2911 5.35197C52.7416 5.80537 52.982 6.423 52.982 7.32701V16.3651C52.982 17.1552 52.7654 17.8466 52.3442 18.2959C51.9721 18.6928 51.4227 18.9438 50.7429 18.9438C49.8334 18.9438 49.1406 18.5572 48.255 17.4088C47.3575 16.249 42.6808 10.1296 41.447 8.52109C41.416 8.48096 41.3912 8.46347 41.3537 8.46347C41.309 8.46347 41.2743 8.50334 41.2743 8.58189V18.937C41.2103 18.9397 41.172 18.9438 41.1088 18.9438C40.2798 18.9438 39.5982 18.6779 39.1247 18.1959C38.6733 17.7426 38.4374 17.1247 38.4374 16.2202V7.18541C38.4374 6.39201 38.6485 5.70192 39.067 5.2533C39.4427 4.85487 39.9901 4.60533 40.6728 4.60533C41.5869 4.60533 42.2824 4.9864 43.1616 6.13968C44.0034 7.24065 47.8676 12.2856 49.9687 15.0285C50.0007 15.0649 50.0216 15.0837 50.0592 15.0837C50.1039 15.0837 50.1387 15.0453 50.1387 14.9669V4.6089C50.2036 4.60705 50.2429 4.60533 50.305 4.60533ZM32.9581 4.55089C33.8036 4.55221 34.5136 4.81553 34.9898 5.29714C35.4387 5.75053 35.6791 6.36843 35.6791 7.27217V18.937C35.6105 18.9397 35.53 18.9438 35.4652 18.9397C34.6242 18.9397 33.9114 18.6743 33.4417 18.1959C32.9911 17.7406 32.7463 17.1238 32.7463 16.2202V4.55579C32.8137 4.55221 32.896 4.55089 32.9581 4.55089ZM10.5132 4.76334C11.6713 4.76334 12.386 4.98269 12.8659 5.3876C13.2651 5.72218 13.5248 6.26326 13.5248 6.82527C13.5248 7.72821 13.1921 8.34599 11.6174 9.62391C10.7025 10.3669 4.74533 15.1779 3.84782 15.899C3.78013 15.953 3.74914 16.0068 3.74914 16.0526C3.74914 16.1207 3.81126 16.1623 3.92636 16.1623H10.5169C11.7827 16.1623 12.45 16.3404 12.9709 16.8157C13.4197 17.2284 13.6316 17.8792 13.6316 18.6308V18.725H3.01613C1.85715 18.725 1.13977 18.5065 0.65989 18.1002C0.264247 17.7675 0 17.2284 0 16.665C0 15.7669 0.314316 15.134 1.89742 13.8645C3.26925 12.7653 8.76852 8.32559 9.71186 7.56728C9.78484 7.5094 9.81597 7.47509 9.81597 7.41827C9.81597 7.35814 9.75186 7.32701 9.63411 7.32701H2.97586C1.92854 7.32701 1.1517 6.98435 0.742145 6.39744C0.480811 6.02114 0.369284 5.44801 0.369284 4.92375C0.369284 4.87116 0.369285 4.81553 0.372066 4.76334H10.5132ZM34.2139 0C35.17 0 35.9487 0.772875 35.9487 1.73092C35.9487 2.68963 35.17 3.46277 34.2139 3.46277C33.2561 3.46277 32.4813 2.68963 32.4813 1.73092C32.4813 0.772875 33.2561 0 34.2139 0Z" fill="#80BD38"/>
<path d="M91.983 4.5107L91.8803 4.50742L91.7764 4.50696C90.9398 4.50696 90.2357 4.77019 89.7644 5.24556C89.3184 5.69494 89.0801 6.30816 89.0801 7.20452V10.525L89.0772 10.7113C89.0152 12.6907 87.9695 14.4201 86.4145 15.4297C85.6947 15.917 85.2089 16.7411 85.2089 17.6784C85.2089 18.1473 85.3278 18.5892 85.5376 18.9741C87.3963 18.4689 89.0058 17.3651 90.1533 15.884C91.3003 14.4032 91.983 12.5453 91.983 10.525V4.5107Z" fill="#80BD38"/>
<path d="M79.8164 17.2305C79.8164 16.2744 79.0423 15.5002 78.0874 15.5002C77.1314 15.5002 76.359 16.2744 76.359 17.2305C76.359 18.1854 77.1314 18.9596 78.0874 18.9596C79.0423 18.9596 79.8164 18.1854 79.8164 17.2305Z" fill="#80BD38"/>
<path d="M83.8726 17.2305C83.8726 16.2744 83.1007 15.5002 82.1425 15.5002C81.1892 15.5002 80.4162 16.2744 80.4162 17.2305C80.4162 18.1854 81.1892 18.9596 82.1425 18.9596C83.1007 18.9596 83.8726 18.1854 83.8726 17.2305Z" fill="#80BD38"/>
<path d="M71.8981 8.13691C71.8981 6.14487 70.1798 4.44821 67.3357 4.44821C63.6431 4.44821 60.7994 7.2223 60.7994 11.3809C60.7994 15.6171 63.8766 18.8625 68.3094 18.8625C70.6237 18.8625 72.6153 18.0347 73.9548 16.5942C74.5686 15.9325 75.0538 15.1809 75.3938 14.2885H80.4604C83.7107 14.2885 86.3466 11.6528 86.3466 8.39687L86.3516 7.42733V4.5107C86.2881 4.50696 86.209 4.50696 86.1471 4.50696C85.3085 4.50696 84.6042 4.77019 84.1315 5.24556C83.686 5.69494 83.4487 6.30816 83.4487 7.20452V8.39687C83.4487 10.0486 82.1108 11.3879 80.4604 11.3879H75.9598C75.9699 11.1748 75.9759 10.9545 75.9759 10.7279V4.5107C75.9113 4.50696 75.8328 4.50696 75.7688 4.50696C74.9317 4.50696 74.227 4.77019 73.7546 5.24556C73.3092 5.69494 73.0708 6.30816 73.0708 7.20452V10.1174C73.0708 12.4171 72.5114 13.8799 71.5554 14.8257C70.7383 15.6359 69.658 16.0984 68.3185 16.0984C65.6405 16.0984 63.8529 14.2104 63.8529 11.4509C63.8529 8.64512 65.6346 7.11089 67.6644 7.11089C69.5671 7.11089 70.7399 8.27797 71.1563 10.4168C71.6625 9.6599 71.8981 8.86896 71.8981 8.13691Z" fill="#80BD38"/>
<path d="M70.1153 11.2178C70.1153 10.2628 69.3423 9.48655 68.3874 9.48655C67.4293 9.48655 66.6573 10.2628 66.6573 11.2178C66.6573 12.1747 67.4293 12.9474 68.3874 12.9474C69.3423 12.9474 70.1153 12.1747 70.1153 11.2178Z" fill="#80BD38"/>
<path d="M91.983 1.73021C91.983 0.775189 91.2088 0 90.253 0C89.2969 0 88.5244 0.775189 88.5244 1.73021C88.5244 2.68601 89.2969 3.46042 90.253 3.46042C91.2088 3.46042 91.983 2.68601 91.983 1.73021Z" fill="#80BD38"/>
</svg>
